<svg xmlns="http://www.w3.org/2000/svg" x="0px" y="0px" viewBox="0 0 864 864" enable-background="new 0 0 864 864"><style>.ls0{fill:#fff}</style><g class="ls0"><g><path d="M189.1,653.7c12,7.9,24.8,14.8,38.4,20.6L357,729l63,26.7v-68.4V547v-61.2v-63h-63H252.4v63H357V547v113.6l-104.9-44.4 c-5.9-2.5-11.6-5.3-17.1-8.4c-46.1-25.7-77.9-70.5-87-122c-1.8-10.1-2.7-20.4-2.7-30.9v-32.1v-60.5v-56.6H357v56.6h63v-56.6v-63 h-63H145.2h-63v119.6v60.5v32.1c0,10.4,0.7,20.8,2,30.9C93.2,554.5,131.7,615.8,189.1,653.7z"/></g><g><path d="M718.8,305.8v149.2c0,70.5-42,133.8-106.9,161.3L507,660.6V305.8v-63h-63v63v381.5v68.4l63-26.6l129.4-54.8 c88.1-37.3,145.4-123.7,145.4-219.3V242.8h-63V305.8z"/></g></g></svg>